<svg xmlns="http://www.w3.org/2000/svg" version="1.1" xmlns:xlink="http://www.w3.org/1999/xlink" xmlns:svgjs="http://svgjs.dev/svgjs" width="1000" height="1000"><g clip-path="url(#SvgjsClipPath1209)"><rect width="1000" height="1000" fill="#a1da99"></rect><g transform="matrix(0.48828125,0,0,0.48828125,0,0)"><svg xmlns="http://www.w3.org/2000/svg" version="1.1" xmlns:xlink="http://www.w3.org/1999/xlink" xmlns:svgjs="http://svgjs.dev/svgjs" width="2048" height="2048"><svg version="1.1" id="Layer_1" xmlns="http://www.w3.org/2000/svg" xmlns:xlink="http://www.w3.org/1999/xlink" x="0px" y="0px" viewBox="0 0 2048 2048" style="enable-background:new 0 0 2048 2048;" xml:space="preserve">
<g>
	<path d="M658.93,1902.92l-257.87-92.58l443.1-659.97l10.82,4.74c4.15,1.93,104.58,46.1,119.93,161.88l0.74,5.71l-3.41,4.74
		c-3.04,4-302.86,405.29-312.12,556.72l-1.11,18.97L658.93,1902.92z M445.08,1795.96l188.79,67.75
		c27.5-161.66,277.2-502.1,311.97-548.79c-12.53-75.53-68.34-114.96-91.61-128.3l-409.08,609.27L445.08,1795.96z"></path>
	<path d="M1218.15,1324.79l-10.6-5.48c-107.4-55.44-234.74-0.22-236.07,0.37l-11.56-26.02c5.48-2.45,132.6-57.89,249.48-4.97
		c51.07-71.75,371.49-540.79,408.7-1089.73c-45.51,32.46-148.17,109.85-200.94,184.04c-70.19,98.88-551.39,786.34-556.34,793.32
		l-23.35-16.31c4.97-7.04,486.16-694.52,556.34-793.32c71.75-101.1,224.66-202.86,231.11-207.24l22.01-14.6v44.99
		c-37.36,607.58-418.19,1120.26-421.96,1125.38l-7.19,9.71L1218.15,1324.79z"></path>
	<path d="M421.44,1817.32l3.56-28.24l232.88,29.28l-3.56,28.24L421.44,1817.32z"></path>
	<path d="M853.63,1361.62c-11.79,0-25.65-5.11-38.91-15.19c-14.45-10.97-24.31-25.42-26.02-38.32c-0.96-7.56,0.74-14.6,4.97-20.09
		c6.45-8.38,17.86-11.93,30.91-9.49c10.08,1.93,21.05,7.04,30.91,14.45c24.09,18.38,32.84,42.92,21.05,58.41
		c-5.34,7.04-13.49,10.23-22.98,10.23H853.63z M817.53,1306.18c1.33,3.78,5.48,10.6,14.45,17.49c9.12,6.82,16.68,9.12,20.68,9.27
		c-1.33-3.78-5.48-10.6-14.45-17.49C829.09,1308.62,821.53,1306.33,817.53,1306.18z"></path>
	<path d="M601.11,1787.74c-2.45,0-5.34-0.22-8.01-0.74c-10.08-1.93-21.05-7.04-30.91-14.45c-24.09-18.38-32.84-42.92-21.05-58.41
		c11.79-15.57,37.73-13.49,61.89,4.97c14.45,10.97,24.31,25.42,26.02,38.32c0.96,7.56-0.74,14.6-4.97,20.09
		C618.97,1784.18,610.82,1787.74,601.11,1787.74z M564.86,1732.37c1.33,3.78,5.48,10.6,14.45,17.49c9.12,6.82,16.68,9.12,20.68,9.27
		c-1.33-3.78-5.48-10.6-14.45-17.49C576.42,1734.82,568.86,1732.52,564.86,1732.37L564.86,1732.37z"></path>
</g>
</svg></svg></g></g><defs><clipPath id="SvgjsClipPath1209"><rect width="1000" height="1000" x="0" y="0" rx="250" ry="250"></rect></clipPath></defs></svg>